# xmcd
#
# Track frame offsets:
#	150
#	12330
#	26480
#	40645
#	52432
#	67725
#	78967
#	88117
#	102242
#	112962
#	123675
#	135142
#	154190
#	166195
#	180100
#	189355
#	203995
#	218175
#	233855
#	248275
#	260625
#	275095
#	290017
#	311465
#
# Disc length: 4303 seconds
#
# Revision: 1
# Processed by: cddbd v1.4PL0 Copyright (c) Steve Scherf et al.
# Submitted via: audiograbber 1.81.01
#
DISCID=4410cd18
DTITLE=Марк Бернес - Я люблю тебя жизнь
DYEAR=1995
DGENRE=
TTITLE0=Песня посвящается моя
TTITLE1=Я улыбаюсь тебе
TTITLE2=Три года ты мне снилась
TTITLE3=Песня Рощина
TTITLE4=Темная ночь
TTITLE5=Любимый город
TTITLE6=Песенка фронтового шофера
TTITLE7=Враги сожгли родную хату
TTITLE8=Перекресток
TTITLE9=Москвичи
TTITLE10=С чего начинается Родина
TTITLE11=Журавли
TTITLE12=Настоящие мужчины
TTITLE13=Шаланды полные кефали
TTITLE14=Тучи над городом встали
TTITLE15=Вечерняя песня
TTITLE16=Песня о кино
TTITLE17=Когда поет далекий друг
TTITLE18=Я спешу
TTITLE19=А самолеты сами не летают
TTITLE20=Я работаю волшебником
TTITLE21=Все еще впереди
TTITLE22=Здравствуйте, дети
TTITLE23=Я люблю тебя, жизнь
EXTD=
EXTT0=
EXTT1=
EXTT2=
EXTT3=
EXTT4=
EXTT5=
EXTT6=
EXTT7=
EXTT8=
EXTT9=
EXTT10=
EXTT11=
EXTT12=
EXTT13=
EXTT14=
EXTT15=
EXTT16=
EXTT17=
EXTT18=
EXTT19=
EXTT20=
EXTT21=
EXTT22=
EXTT23=
PLAYORDER=
